<svg id="Layer_2" data-name="Layer 2" xmlns="http://www.w3.org/2000/svg" viewBox="0 0 37 39.46"><path d="M196,178.32V160.47l-4.5,2.7-6-3.61L202,150.75v25.17Zm1-19.62v18.15l4-1.6V152.42l-13.48,7.19,4,2.39Z" transform="translate(-165.03 -146.7)"/><path d="M179,157.47l-6-3.6V146.7l6,3.6Zm-5-4.17,4,2.4v-4.83l-4-2.4Z" transform="translate(-165.03 -146.7)"/><path d="M183.52,186.16,173,179.87v-16l6,2.4v11l4.46,1.78L188,176.3v-6.43l-18-10.42v18.94l-5-2.5V150.71l28,16.59v13.58ZM174,179.3l9.51,5.71,8.49-4.72V167.87l-26-15.41v22.81l3,1.5V157.72l20,11.58v7.57l-5.45,3.27L178,177.92v-11l-4-1.6Z" transform="translate(-165.03 -146.7)"/></svg>